<?xml version="1.0" encoding="utf-8" ?>
<svg xmlns="http://www.w3.org/2000/svg"
    xmlns:xlink="http://www.w3.org/1999/xlink" width="1006" height="423" viewBox="0 0 1006 423">
    <path fill="#ffffff"
        d="M162.93 96.0206C172.508 95.2838 186.08 96.3778 195.493 97.978C236.236 104.902 272.526 127.815 296.299 161.625C312.86 185.009 322.75 212.457 324.911 241.03C325.779 252.457 325.476 265.41 325.474 276.985L325.446 334.348L325.513 375.906C325.533 383.206 326.283 391.478 325.014 398.636C324.432 401.918 322.212 404.811 319.481 406.658C314.858 409.783 274.832 409.284 268.06 407.98C253.818 405.237 261.575 391.68 256.824 384.7C254.143 383.783 248.416 388.338 245.581 389.949C231.28 398.074 215.098 403.139 199.062 406.138C150.807 413.805 105.036 402.483 67.9592 369.925C36.7444 342.842 17.5257 304.497 14.5078 263.277C11.5299 221.533 25.4646 180.344 53.175 148.985C81.9197 116.301 119.774 98.7719 162.93 96.0206ZM176.104 339.785C224.418 336.871 261.225 295.34 258.318 247.018C255.412 198.695 213.893 161.877 165.578 164.777C117.253 167.677 80.4307 209.214 83.3379 257.546C86.2451 305.878 127.78 342.7 176.104 339.785Z" />
    <path fill="#ffffff"
        d="M628.998 102.741L659.73 102.607C688.444 102.543 688.837 102.705 688.648 131.134L688.639 159.841L688.637 235.967C688.622 249.983 688.551 264.069 688.661 278.079C688.798 295.567 696.109 312.545 708.929 324.612C720.794 335.912 736.677 342.01 753.054 341.554C779.885 340.617 803.292 323.065 811.713 297.568C816.751 282.792 814.93 248.421 814.928 231.141L814.911 139.092C814.884 134.369 815.114 128.168 814.821 123.609C813.308 100.115 825.18 102.532 843.493 102.649C851.783 102.765 860.074 102.761 868.364 102.638C883.719 102.506 883.888 112.673 883.716 124.756C883.661 128.648 883.712 132.863 883.709 136.786L883.661 180.549L883.68 242.65C883.679 279.482 886.106 305.23 868.119 338.956C851.73 369.706 823.825 392.709 790.516 402.927C756.646 413.215 720.087 409.746 688.755 393.272C657.672 376.682 634.379 348.509 623.923 314.859C621.062 305.323 619.259 295.5 618.549 285.569C617.901 275.426 618.207 263.129 618.206 252.849L618.218 198.654L618.199 146.501C618.167 136.472 618.028 126.433 618.241 116.409C618.407 108.595 621.606 104.876 628.998 102.741Z" />
    <path fill="#ffffff"
        d="M506.875 10.4543C513.905 9.71372 553.933 9.24733 558.696 11.1294C561.541 12.2538 564.209 14.8901 565.357 17.7229C566.048 19.4285 566.325 21.0845 566.386 22.9088C567.015 41.6805 566.431 60.6609 566.433 79.4622L566.435 191.586L566.432 327.052C566.432 349.321 566.482 371.591 566.449 393.859C566.437 401.533 564.144 405.416 556.944 408.274C549.076 408.901 511.311 409.672 505.646 407.682C502.562 406.599 500.016 403.813 498.689 400.889C497.968 399.298 497.768 397.699 497.711 395.973C497.265 382.389 497.67 368.671 497.673 355.074L497.662 276.133L497.65 114.964C497.65 103.84 496.576 22.2019 498.708 17.1935C500.053 14.0315 503.863 11.7101 506.875 10.4543Z" />
    <path fill="#ffffff"
        d="M386.529 10.4437C393.891 9.66284 404.981 10.2475 412.674 10.0653C420.136 10.4771 428.544 9.32607 435.896 10.5065C447.646 12.3927 445.981 25.1011 445.983 33.0132L445.989 56.4957L446.003 137.312L446.008 306.325C446.005 334.653 446.019 362.982 445.978 391.309C445.965 400.11 445.641 404.817 436.483 408.272C427.714 408.946 391.241 409.753 384.644 407.162C381.522 405.937 379.69 404.362 378.396 401.239C377.735 399.645 377.404 398.017 377.333 396.297C376.577 377.996 377.277 359.393 377.277 341.055L377.277 231.625L377.289 89.5922C377.304 68.3127 377.321 47.0346 377.216 25.756C377.177 17.9864 378.841 13.509 386.529 10.4437Z" />
    <path fill="#26AF60"
        d="M946.669 320.491C971.173 319.134 992.115 337.949 993.385 362.462C994.655 386.974 975.769 407.853 951.256 409.036C926.866 410.213 906.117 391.439 904.854 367.049C903.59 342.659 922.288 321.841 946.669 320.491Z" />
</svg>